# xmcd CD database file
#
# Track frame offsets:
#	150
#	15472
#	30444
#	46789
#	63725
#	78885
#	95626
#	108580
#	121994
#	135357
#
# Disc length: 2078 seconds
#
# Revision: 0
# Processed by: cddbd v1.5.2PL0 Copyright (c) Steve Scherf et al.
# Submitted via: CDex 1.51
#
DISCID=75081c0a
DTITLE=Christian Simmons - Welcome to Nashville West, California
DYEAR=2004
DGENRE=Country
TTITLE0=Days Back Then
TTITLE1=Hollywood Trailer Chicks
TTITLE2=Somewhere South Of Tulsa
TTITLE3=Goodbye To You
TTITLE4=What Did I Do (To Tick You Off)
TTITLE5=Gone
TTITLE6=Adios
TTITLE7=Lucky Man
TTITLE8=Somebody Elses Girl
TTITLE9=Help Us All
EXTD=YEAR: 2004
EXTT0=
EXTT1=
EXTT2=
EXTT3=
EXTT4=
EXTT5=
EXTT6=
EXTT7=
EXTT8=
EXTT9=
PLAYORDER=
